<svg xmlns="http://www.w3.org/2000/svg" version="1.1" xmlns:xlink="http://www.w3.org/1999/xlink" xmlns:svgjs="http://svgjs.com/svgjs" width="1920" height="1080" preserveAspectRatio="none" viewBox="0 0 1920 1080"><g mask="url(&quot;#SvgjsMask1023&quot;)" fill="none"><rect width="1920" height="1080" x="0" y="0" fill="rgba(0, 32, 46, 1)"></rect><path d="M270 237.6C249.02 241.93 240 255.53 240 270C240 281.86 252.38 287.17 270 290.25C402.38 313.42 412.94 330.4 540 322.5C575.73 320.28 595.59 297.4 595.59 270C595.59 240.17 578.19 211.83 540 208.03C415.4 195.63 399.02 210.95 270 237.6" stroke="rgba(255, 133, 49, 1)" stroke-width="2"></path><path d="M240 0C240 77.17 69.21 259.2 0 259.2C-50.79 259.2 -62.31 67.29 0 0C57.69 -62.31 240 -52.43 240 0" stroke="rgba(255, 133, 49, 1)" stroke-width="2"></path><path d="M540 97.38C436.89 26.44 302.4 25.29 302.4 0C302.4 -23.4 421.2 0 540 0C675 0 675 0 810 0C945 0 945 0 1080 0C1153.93 0 1227.86 -37.68 1227.86 0C1227.86 64.13 1162.67 110.57 1080 203.61C1042.71 245.57 987.95 225.49 987.95 270C987.95 350.73 1033.71 362.18 1080 454.09C1101.71 497.18 1088.5 509.09 1123.95 540C1223.5 626.82 1227.93 634.82 1350 689.54C1475.95 746 1493.01 713.19 1620 762.35C1648.6 773.42 1644.99 783.1 1661.19 810C1740.62 941.93 1823.97 996.62 1811.25 1080C1803.37 1131.62 1715.63 1080 1620 1080C1524.38 1080 1519.06 1097.56 1428.75 1080C1384.06 1071.31 1390.72 1027.5 1350 1027.5C1301.61 1027.5 1304.18 1069.57 1250.53 1080C1169.18 1095.82 1165.26 1080 1080 1080C1052.54 1080 1028.66 1102.8 1025.08 1080C1007.48 967.8 1091.55 913.58 1037.65 810C984.01 706.91 934.12 705.52 810 666.67C685.29 627.64 675.03 659.77 540 654.23C405.03 648.69 404.46 638.06 270 644.52C134.46 651.04 89.12 714.69 0 680.19C-45.88 662.43 0 610.1 0 540C0 409.82 -60.13 297.68 0 279.64C74.87 257.18 123.53 421.94 270 459C393.53 490.25 420.6 469.36 540 416.25C633.03 374.86 694.85 346.33 694.85 270C694.85 186.9 633.12 161.44 540 97.38" stroke="rgba(255, 133, 49, 1)" stroke-width="2"></path><path d="M1620 222.35C1550.63 222.35 1478.25 72.31 1478.25 0C1478.25 -38.87 1549.13 0 1620 0C1686.7 0 1753.41 -37.77 1753.41 0C1753.41 73.41 1688.21 222.35 1620 222.35" stroke="rgba(255, 133, 49, 1)" stroke-width="2"></path><path d="M1822.5 270C1831.71 240.56 1869.07 278.28 1890 252.39C1978.21 143.28 1944.73 89.79 2040.78 0C2079.73 -36.41 2141.74 -41.35 2160 0C2201.35 93.65 2160 135 2160 270C2160 344.49 2184.96 353.69 2160 418.97C2133.34 488.69 2119.19 493.55 2056.76 540C1984.19 593.99 1967.77 619.86 1890 619.86C1839.39 619.86 1810.38 593.8 1800 540C1776.63 418.87 1786.71 384.36 1822.5 270" stroke="rgba(255, 133, 49, 1)" stroke-width="2"></path><path d="M0 935C88.27 872.53 141.86 867.1 270 888.92C411.86 913.08 410.81 950.11 540 1026.96C571.41 1045.65 591.21 1064.35 591.21 1080C591.21 1090.87 565.61 1080 540 1080C405 1080 405 1080 270 1080C135 1080 87.83 1127.17 0 1080C-47.17 1054.67 -46.73 968.07 0 935" stroke="rgba(255, 133, 49, 1)" stroke-width="2"></path><path d="M1947.27 1080C1947.27 1046.99 2089.14 956.84 2160 956.84C2195.5 956.84 2199 1057.42 2160 1080C2092.64 1119 1947.27 1108.57 1947.27 1080" stroke="rgba(255, 133, 49, 1)" stroke-width="2"></path><path d="M794.12 270C809.36 254.11 800.3 228.46 810 228.46C820.52 228.46 826.33 247.39 834.55 270C882.95 403.16 931.83 430.18 923.23 540C919.56 586.85 869.31 579.04 810 583.33C677.69 592.89 673.75 583.23 540 567.69C487.32 561.57 437.14 554.38 437.14 540C437.14 525.54 498.12 541.67 540 510C676.61 406.67 674.36 394.88 794.12 270" stroke="rgba(255, 133, 49, 1)" stroke-width="2"></path><path d="M1080 92.95C1021.78 92.95 948.14 25.57 948.14 0C948.14 -20.9 1014.07 0 1080 0C1113.75 0 1147.5 -17.2 1147.5 0C1147.5 29.27 1121.46 92.95 1080 92.95" stroke="rgba(255, 133, 49, 1)" stroke-width="2"></path><path d="M1620 90C1591.92 90 1562.63 29.27 1562.63 0C1562.63 -15.73 1591.32 0 1620 0C1647 0 1674 -15.29 1674 0C1674 29.71 1647.61 90 1620 90" stroke="rgba(255, 133, 49, 1)" stroke-width="2"></path><path d="M2160 135C2152.01 135 2128.44 54.98 2128.44 0C2128.44 -12.52 2157.01 -12.79 2160 0C2172.79 54.71 2167.79 135 2160 135" stroke="rgba(255, 133, 49, 1)" stroke-width="2"></path><path d="M0 520.71C12.23 520.71 36 532.26 36 540C36 547.1 14.1 550.38 0 550.38C-3.9 550.38 0 545.19 0 540C0 530.36 -5.77 520.71 0 520.71" stroke="rgba(255, 133, 49, 1)" stroke-width="2"></path><path d="M1298.57 810C1298.57 798.91 1324.23 793.38 1350 793.38C1376.94 793.38 1404 798.86 1404 810C1404 822.17 1376.84 840 1350 840C1324.13 840 1298.57 822.22 1298.57 810" stroke="rgba(255, 133, 49, 1)" stroke-width="2"></path><path d="M0 1060C125.95 1019.31 139.98 986.75 270 992.77C355.98 996.75 432 1056.81 432 1080C432 1100.42 351 1080 270 1080C135 1080 125.69 1089.31 0 1080C-9.31 1079.31 -9.05 1062.92 0 1060" stroke="rgba(255, 133, 49, 1)" stroke-width="2"></path><path d="M2151.82 1080C2151.82 1078.73 2157.28 1075.26 2160 1075.26C2161.37 1075.26 2161.5 1079.13 2160 1080C2157.41 1081.5 2151.82 1081.1 2151.82 1080" stroke="rgba(255, 133, 49, 1)" stroke-width="2"></path></g><defs><mask id="SvgjsMask1023"><rect width="1920" height="1080" fill="#ffffff"></rect></mask></defs></svg>