<svg width="391" height="411" viewBox="0 0 391 411" fill="none" xmlns="http://www.w3.org/2000/svg">
<path d="M195.5 391C303.472 391 391 303.472 391 195.5C391 87.5283 303.472 0 195.5 0C87.5283 0 0 87.5283 0 195.5C0 303.472 87.5283 391 195.5 391Z" fill="#BB5109"/>
<path fill-rule="evenodd" clip-rule="evenodd" d="M234.622 111.77L253.468 91.3934L274.906 87.3494L282.983 107.648L283.609 135.096L306.041 258.283L249.726 272.605L182.72 277.219L150.166 161.036L143.653 106.274L190.071 100.655L234.622 111.77Z" fill="#DFBDA5"/>
<path fill-rule="evenodd" clip-rule="evenodd" d="M172.353 148.401L219.351 175.872L231.561 205.789L228.97 170.498L223.015 151.451L172.353 148.401Z" fill="#C3987B"/>
<path fill-rule="evenodd" clip-rule="evenodd" d="M246.218 135.576L240.722 149.004L239.884 162.946L246.922 180.005L277.956 129.477L263.311 112.988L246.218 135.576Z" fill="#C3987B"/>
<path fill-rule="evenodd" clip-rule="evenodd" d="M223.015 151.451L175.403 136.805L172.353 148.401L214.469 161.829L223.015 151.451Z" fill="#004D6E"/>
<path fill-rule="evenodd" clip-rule="evenodd" d="M240.722 128.259L263.311 112.988L277.956 129.477L269.41 136.191L259.345 124.595L246.218 135.576L240.722 128.259Z" fill="#004D6E"/>
<path fill-rule="evenodd" clip-rule="evenodd" d="M240.722 149.005L251.1 200.907L242.811 206.504L231.561 205.789L223.015 151.451L240.722 149.005Z" fill="#E8CAB6"/>
<path fill-rule="evenodd" clip-rule="evenodd" d="M270.628 233.583L233.617 236.063L204.828 227.283L209.554 215.832L193.724 225.953L197.835 245.794L203.387 235.114L233.617 243.883L270.628 233.583Z" fill="#8B6651"/>
<path fill-rule="evenodd" clip-rule="evenodd" d="M143.653 106.274L116.183 139.855L123.958 165.918L143.039 197.846L134.448 200.158L129.611 209.453L119.478 202.147L111.301 184.418L102.196 198.382L91.1477 204.56L107.536 218.055L114.965 234.477L119.702 244.799L122.137 265.522L133.89 316.285L236.443 311.403V288.815L306.041 258.283L182.72 277.219L157.685 155.73L143.653 106.274Z" fill="#C3987B"/>
<path fill-rule="evenodd" clip-rule="evenodd" d="M129.611 209.453L133.89 219.217L114.965 234.477L91.1477 204.56L111.301 184.418L129.611 209.453Z" fill="#DFBDA5"/>
<path fill-rule="evenodd" clip-rule="evenodd" d="M283.967 137.04L292.01 77.5855L274.906 87.3493L283.967 137.04Z" fill="#004D6E"/>
<path fill-rule="evenodd" clip-rule="evenodd" d="M234.622 111.77L292.01 77.5855L230.958 39.1223L226.221 78.9485L234.622 111.77Z" fill="#0094D4"/>
<path fill-rule="evenodd" clip-rule="evenodd" d="M234.622 111.77L230.958 39.1223L72.2233 98.9565L106.464 109.413L143.653 106.274L234.622 111.77Z" fill="#00ABF5"/>
<path fill-rule="evenodd" clip-rule="evenodd" d="M72.2233 98.9565L66.1237 191.746L93.8176 168.365L116.183 139.855L143.653 106.274L72.2233 98.9565Z" fill="#0094D4"/>
<path fill-rule="evenodd" clip-rule="evenodd" d="M116.183 139.855L143.039 197.846L129.611 209.453L111.301 184.418L91.1477 204.56L66.1237 191.746L116.183 139.855Z" fill="#004D6E"/>
<path fill-rule="evenodd" clip-rule="evenodd" d="M102.14 205.789L109.469 198.46L118.618 213.721L102.14 205.789Z" fill="#8B6651"/>
<path fill-rule="evenodd" clip-rule="evenodd" d="M114.965 234.477L128.393 223.496L122.361 266.494L114.965 234.477Z" fill="#8B6651"/>
<path fill-rule="evenodd" clip-rule="evenodd" d="M161.583 279.945L306.041 258.283L236.443 288.815V311.404L193.009 301.081L161.583 279.945Z" fill="#8B6651"/>
<path fill-rule="evenodd" clip-rule="evenodd" d="M251.1 200.907L242.554 214.949L231.561 205.789L251.1 200.907Z" fill="#8B6651"/>
<path fill-rule="evenodd" clip-rule="evenodd" d="M133.89 316.285L219.965 380.387L236.443 311.404L133.89 316.285Z" fill="#A94F14"/>
<path fill-rule="evenodd" clip-rule="evenodd" d="M97.2585 390.821C104.296 392.776 111.167 396.105 117.892 398.92L121.735 400.54C124.539 400.228 127.321 399.982 130.158 399.848C139.095 399.446 148.2 400.384 157.081 400.875C168.376 401.512 179.625 402.417 190.842 403.523L219.965 380.387L133.89 316.285L74.681 348.683L83.7857 388.274C88.334 388.785 92.8375 389.637 97.2585 390.821Z" fill="#D27334"/>
<path fill-rule="evenodd" clip-rule="evenodd" d="M236.443 311.404L312.889 332.417L301.115 363.429L293.92 395.536L259.881 386.52L219.965 380.387L236.443 311.404Z" fill="#D27334"/>
<path fill-rule="evenodd" clip-rule="evenodd" d="M222.714 407.154L219.965 380.342L187.211 403.143C199.075 404.305 210.909 405.642 222.714 407.154Z" fill="#934A1A"/>
<path fill-rule="evenodd" clip-rule="evenodd" d="M246.319 410.304C262.238 410.505 278.168 410.517 294.077 409.969L287.642 384.554L219.965 380.387L221.339 406.986C229.673 408.036 238 409.142 246.319 410.304Z" fill="#934A1A"/>
<path fill-rule="evenodd" clip-rule="evenodd" d="M314.051 408.964C319.804 406.137 325.569 403.378 331.49 400.831L312.889 332.417L287.642 384.554L290.089 410.092C298.087 409.869 306.097 409.511 314.051 408.964Z" fill="#934A1A"/>
<path fill-rule="evenodd" clip-rule="evenodd" d="M72.0096 389.62C77.6512 389.843 83.2778 390.353 88.8673 391.15L76.0201 351L62 389.608C65.3179 389.463 68.6582 389.452 72.0096 389.62Z" fill="#A94F14"/>
<path fill-rule="evenodd" clip-rule="evenodd" d="M161.584 279.945L133.89 316.285L236.443 311.404L161.584 279.945Z" fill="#C3987B"/>
<path d="M202.214 175.704C206.292 175.704 209.598 172.398 209.598 168.32C209.598 164.242 206.292 160.936 202.214 160.936C198.136 160.936 194.83 164.242 194.83 168.32C194.83 172.398 198.136 175.704 202.214 175.704Z" fill="#002738"/>
<path d="M261.869 161.673C265.948 161.673 269.254 158.367 269.254 154.289C269.254 150.21 265.948 146.904 261.869 146.904C257.791 146.904 254.485 150.21 254.485 154.289C254.485 158.367 257.791 161.673 261.869 161.673Z" fill="#002738"/>
</svg>
