<svg xmlns="http://www.w3.org/2000/svg" version="1.1" xmlns:xlink="http://www.w3.org/1999/xlink" xmlns:svgjs="http://svgjs.com/svgjs" width="1440" height="560" preserveAspectRatio="none" viewBox="0 0 1440 560"><g mask="url(&quot;#SvgjsMask1009&quot;)" fill="none"><path d="M1512 560L0 560 L0 369.48Q32.78 282.26, 120 315.04Q198.8 273.84, 240 352.63Q275.15 267.78, 360 302.94Q433.59 256.53, 480 330.12Q517.95 248.06, 600 286.01Q690.1 256.11, 720 346.21Q774.33 280.54, 840 334.88Q895.6 318.48, 912 374.07Q962.04 304.11, 1032 354.14Q1078.21 280.35, 1152 326.56Q1202.23 256.79, 1272 307.03Q1347.13 262.15, 1392 337.28Q1425.22 250.5, 1512 283.71z" fill="rgba(0, 32, 46, 1)"></path><path d="M1560 560L0 560 L0 423.17Q7.14 358.31, 72 365.46Q137.8 311.26, 192 377.06Q247.13 360.19, 264 415.32Q298.43 329.75, 384 364.18Q460.9 321.08, 504 397.97Q582.78 356.75, 624 435.54Q646.86 338.4, 744 361.26Q811.96 309.22, 864 377.17Q955.99 349.16, 984 441.15Q998.77 335.92, 1104 350.69Q1174.02 300.71, 1224 370.72Q1295.09 369.81, 1296 440.9Q1308.9 381.8, 1368 394.71Q1392.83 347.53, 1440 372.36Q1517.93 330.3, 1560 408.23z" fill="rgba(0, 43, 61, 1)"></path><path d="M1536 560L0 560 L0 511.75Q32.71 424.46, 120 457.17Q163.6 428.77, 192 472.37Q273.95 434.32, 312 516.28Q331.08 463.36, 384 482.43Q423 401.43, 504 440.43Q554.04 418.47, 576 468.51Q592.45 412.96, 648 429.41Q720.65 382.07, 768 454.72Q842.15 408.88, 888 483.03Q931.81 454.83, 960 498.64Q1006.69 425.33, 1080 472.03Q1122.68 394.71, 1200 437.39Q1244.46 409.85, 1272 454.31Q1328.45 438.76, 1344 495.22Q1353.37 432.59, 1416 441.96Q1467.28 373.24, 1536 424.51z" fill="rgba(0, 87, 125, 1)"></path><path d="M1536 560L0 560 L0 508.82Q29.33 466.15, 72 495.49Q133.39 484.88, 144 546.28Q188.62 470.9, 264 515.52Q318.78 450.3, 384 505.09Q466.39 467.48, 504 549.87Q534.42 460.29, 624 490.71Q690.77 437.48, 744 504.25Q842.42 482.67, 864 581.09Q914.63 511.73, 984 562.36Q1026.13 484.5, 1104 526.63Q1191.97 494.6, 1224 582.57Q1249.36 535.93, 1296 561.3Q1327.96 473.26, 1416 505.22Q1485.67 454.89, 1536 524.56z" fill="rgba(0, 159, 227, 1)"></path></g><defs><mask id="SvgjsMask1009"><rect width="1440" height="560" fill="#ffffff"></rect></mask></defs></svg>