<svg width="272" height="285" viewBox="0 0 272 285" fill="none" xmlns="http://www.w3.org/2000/svg">
<path d="M136 270.616C211.111 270.616 272 210.036 272 135.308C272 60.5794 211.111 0 136 0C60.8893 0 0 60.5794 0 135.308C0 210.036 60.8893 270.616 136 270.616Z" fill="#1D0D30"/>
<path fill-rule="evenodd" clip-rule="evenodd" d="M163.215 77.3574L176.326 63.2545L191.239 60.4555L196.858 74.5044L197.293 93.5016L212.898 178.761L173.722 188.673L127.109 191.867L104.463 111.455L99.9327 73.5533L132.223 69.6642L163.215 77.3574Z" fill="#DFBDA5"/>
<path fill-rule="evenodd" clip-rule="evenodd" d="M119.898 102.71L152.592 121.723L161.086 142.429L159.283 118.004L155.141 104.821L119.898 102.71Z" fill="#C3987B"/>
<path fill-rule="evenodd" clip-rule="evenodd" d="M171.282 93.8341L167.459 103.128L166.876 112.777L171.772 124.584L193.361 89.6125L183.173 78.2002L171.282 93.8341Z" fill="#C3987B"/>
<path fill-rule="evenodd" clip-rule="evenodd" d="M155.141 104.821L122.019 94.6846L119.898 102.71L149.196 112.004L155.141 104.821Z" fill="#2B2B2B"/>
<path fill-rule="evenodd" clip-rule="evenodd" d="M167.459 88.7697L183.173 78.2002L193.361 89.6125L187.416 94.2593L180.414 86.2336L171.282 93.8341L167.459 88.7697Z" fill="#2B2B2B"/>
<path fill-rule="evenodd" clip-rule="evenodd" d="M167.459 103.128L174.678 139.05L168.912 142.924L161.086 142.429L155.141 104.821L167.459 103.128Z" fill="#E8CAB6"/>
<path fill-rule="evenodd" clip-rule="evenodd" d="M188.263 161.666L162.516 163.382L142.489 157.305L145.776 149.38L134.764 156.385L137.624 170.117L141.487 162.725L162.516 168.795L188.263 161.666Z" fill="#8B6651"/>
<path fill-rule="evenodd" clip-rule="evenodd" d="M99.9327 73.5533L80.8228 96.7954L86.2317 114.834L99.5053 136.932L93.529 138.532L90.164 144.965L83.1153 139.908L77.4266 127.638L71.0929 137.303L63.407 141.578L74.8077 150.919L79.9757 162.284L83.2708 169.429L84.9649 183.771L93.1405 218.905L164.482 215.526V199.892L212.898 178.761L127.109 191.867L109.694 107.782L99.9327 73.5533Z" fill="#C3987B"/>
<path fill-rule="evenodd" clip-rule="evenodd" d="M90.164 144.965L93.1405 151.723L79.9757 162.284L63.407 141.578L77.4266 127.638L90.164 144.965Z" fill="#DFBDA5"/>
<path fill-rule="evenodd" clip-rule="evenodd" d="M197.542 94.8469L203.137 53.6978L191.239 60.4555L197.542 94.8469Z" fill="#391B5F"/>
<path fill-rule="evenodd" clip-rule="evenodd" d="M163.215 77.3574L203.137 53.6979L160.666 27.077L157.371 54.6412L163.215 77.3574Z" fill="#4A207E"/>
<path fill-rule="evenodd" clip-rule="evenodd" d="M163.216 77.3574L160.667 27.077L50.2423 68.489L74.0617 75.726L99.9328 73.5534L163.216 77.3574Z" fill="#622BA6"/>
<path fill-rule="evenodd" clip-rule="evenodd" d="M50.2422 68.489L45.999 132.71L65.2644 116.527L80.8228 96.7954L99.9327 73.5533L50.2422 68.489Z" fill="#4A207E"/>
<path fill-rule="evenodd" clip-rule="evenodd" d="M80.8228 96.7954L99.5053 136.932L90.1641 144.965L77.4267 127.638L63.407 141.578L45.999 132.71L80.8228 96.7954Z" fill="#391B5F"/>
<path fill-rule="evenodd" clip-rule="evenodd" d="M71.0542 142.429L76.1523 137.357L82.5171 147.919L71.0542 142.429Z" fill="#8B6651"/>
<path fill-rule="evenodd" clip-rule="evenodd" d="M79.9757 162.284L89.317 154.684L85.1204 184.444L79.9757 162.284Z" fill="#8B6651"/>
<path fill-rule="evenodd" clip-rule="evenodd" d="M112.406 193.753L212.898 178.761L164.482 199.892V215.526L134.267 208.382L112.406 193.753Z" fill="#8B6651"/>
<path fill-rule="evenodd" clip-rule="evenodd" d="M174.678 139.05L168.733 148.769L161.086 142.429L174.678 139.05Z" fill="#8B6651"/>
<path fill-rule="evenodd" clip-rule="evenodd" d="M93.1405 218.905L153.019 263.27L164.482 215.526L93.1405 218.905Z" fill="#474747"/>
<path fill-rule="evenodd" clip-rule="evenodd" d="M67.658 270.492C72.554 271.845 77.3334 274.149 82.0118 276.098L84.6852 277.219C86.6358 277.002 88.5709 276.832 90.5448 276.74C96.762 276.461 103.096 277.111 109.274 277.451C117.131 277.892 124.957 278.518 132.759 279.283L153.019 263.271L93.1405 218.905L51.9519 241.327L58.2856 268.729C61.4496 269.083 64.5825 269.672 67.658 270.492Z" fill="#6F7173"/>
<path fill-rule="evenodd" clip-rule="evenodd" d="M164.482 215.526L217.662 230.07L209.471 251.533L204.466 273.755L180.787 267.515L153.019 263.27L164.482 215.526Z" fill="#6F7173"/>
<path fill-rule="evenodd" clip-rule="evenodd" d="M154.931 281.796L153.019 263.24L130.234 279.02C138.487 279.824 146.719 280.75 154.931 281.796Z" fill="#474747"/>
<path fill-rule="evenodd" clip-rule="evenodd" d="M171.352 283.976C182.427 284.116 193.509 284.123 204.575 283.745L200.099 266.155L153.019 263.271L153.975 281.68C159.773 282.407 165.565 283.172 171.352 283.976Z" fill="#474747"/>
<path fill-rule="evenodd" clip-rule="evenodd" d="M218.47 283.049C222.473 281.092 226.483 279.183 230.602 277.42L217.662 230.07L200.099 266.154L201.801 283.83C207.365 283.675 212.937 283.427 218.47 283.049Z" fill="#474747"/>
<path fill-rule="evenodd" clip-rule="evenodd" d="M49.1542 268.01C53.0788 268.164 56.993 268.518 60.8813 269.069L51.9442 241.281L42.191 268.002C44.4992 267.902 46.8228 267.894 49.1542 268.01Z" fill="#4B4B4B"/>
<path fill-rule="evenodd" clip-rule="evenodd" d="M112.406 193.753L93.1405 218.905L164.482 215.526L112.406 193.753Z" fill="#C3987B"/>
<path d="M140.671 121.607C143.508 121.607 145.808 119.319 145.808 116.496C145.808 113.674 143.508 111.385 140.671 111.385C137.834 111.385 135.534 113.674 135.534 116.496C135.534 119.319 137.834 121.607 140.671 121.607Z" fill="#2B2B2B"/>
<path d="M182.17 111.896C185.007 111.896 187.307 109.608 187.307 106.785C187.307 103.962 185.007 101.674 182.17 101.674C179.333 101.674 177.033 103.962 177.033 106.785C177.033 109.608 179.333 111.896 182.17 111.896Z" fill="#2B2B2B"/>
</svg>
